<svg xmlns="http://www.w3.org/2000/svg" viewBox="0 0 15.92 14"><title>back</title><rect x="-68.54" y="-66.5" width="159" height="146" fill="none" stroke="red" stroke-miterlimit="10" stroke-width="15"/><path d="M11.24,11.24a6,6,0,0,1-8.48,0,6,6,0,0,1,0-8.48,6,6,0,0,1,8.48,0A5.94,5.94,0,0,1,13,7" fill="none" stroke="#fff" stroke-linecap="round" stroke-linejoin="round" stroke-width="2"/><polyline points="10.55 6.07 13.27 7.72 14.92 5" fill="none" stroke="#fff" stroke-linecap="round" stroke-linejoin="round" stroke-width="2"/><path d="M7-11A18,18,0,1,1-11,7,18,18,0,0,1,7-11m0-2A20,20,0,1,0,27,7,20,20,0,0,0,7-13Z" fill="#fff"/></svg>