<svg xmlns="http://www.w3.org/2000/svg" viewBox="0 0 22.87 14.49"><title>shuffle</title><circle cx="11.5" cy="7.25" r="20" fill="none" stroke="#fff" stroke-miterlimit="10" stroke-width="2"/><path d="M1,11.9H3.9A5.81,5.81,0,0,0,8,10.2l5.9-5.9A5.82,5.82,0,0,1,18,2.59h1.61" fill="none" stroke="#fff" stroke-linecap="round" stroke-miterlimit="10" stroke-width="2"/><path d="M18.89,5.13,22.66,3a.41.41,0,0,0,0-.72L18.89.06a.41.41,0,0,0-.62.36V4.77A.41.41,0,0,0,18.89,5.13Z" fill="#fff"/><path d="M1,2.59H3.9A5.82,5.82,0,0,1,8,4.3l5.9,5.9A5.81,5.81,0,0,0,18,11.9h1.61" fill="none" stroke="#fff" stroke-linecap="round" stroke-miterlimit="10" stroke-width="2"/><path d="M18.89,14.44l3.77-2.18a.41.41,0,0,0,0-.72L18.89,9.36a.41.41,0,0,0-.62.36v4.36A.41.41,0,0,0,18.89,14.44Z" fill="#fff"/><rect x="-31.5" y="-41.75" width="81" height="98" fill="none" stroke="red" stroke-miterlimit="10" stroke-width="15"/></svg>